HIERARCHY
ROOT Hips
{
     OFFSET 32.27200 96.78790 -14.46120
     CHANNELS 6 Xposition Yposition Zposition Zrotation Xrotation Yrotation
     JOINT Spine
     {
          OFFSET 0.00000 11.89050 0.00000
          CHANNELS 3 Zrotation Xrotation Yrotation
          JOINT Spine1
          {
               OFFSET 0.00000 25.65740 0.12766
               CHANNELS 3 Zrotation Xrotation Yrotation
               JOINT HEad
               {
                    OFFSET 0.00000 8.73416 0.01134
                    CHANNELS 3 Zrotation Xrotation Yrotation
                    End Site
                    {
                         OFFSET -0.29000 12.77420 2.51395
                    }
               }
               JOINT LeftShoulder1
               {
                    OFFSET 8.99000 -0.36225 -0.22000
                    CHANNELS 3 Zrotation Xrotation Yrotation
                    JOINT LeftArm
                    {
                         OFFSET 10.28270 -0.00338 0.32212
                         CHANNELS 3 Zrotation Xrotation Yrotation
                         JOINT LeftForeArm
                         {
                              OFFSET 32.76690 0.09914 -1.42434
                              CHANNELS 3 Zrotation Xrotation Yrotation
                              JOINT LeftHand
                              {
                                   OFFSET 27.56430 0.08536 1.02216
                                   CHANNELS 3 Zrotation Xrotation Yrotation
                                   End Site
                                   {
                                        OFFSET 16.74430 -0.60000 1.50291
                                   }
                              }
                         }
                    }
               }
               JOINT RightShoulder
               {
                    OFFSET -8.99000 -0.36225 -0.22000
                    CHANNELS 3 Zrotation Xrotation Yrotation
                    JOINT RightArm
                    {
                         OFFSET -10.28270 -0.00338 0.32212
                         CHANNELS 3 Zrotation Xrotation Yrotation
                         JOINT RightForeArm
                         {
                              OFFSET -32.89710 0.09914 -1.42434
                              CHANNELS 3 Zrotation Xrotation Yrotation
                              JOINT RightHand
                              {
                                   OFFSET -27.49210 0.08536 1.02216
                                   CHANNELS 3 Zrotation Xrotation Yrotation
                                   End Site
                                   {
                                        OFFSET -16.63120 -0.60000 1.50291
                                   }
                              }
                         }
                    }
               }
          }
     }
     JOINT LeftUpLeg
     {
          OFFSET 8.94580 -8.66707 0.10165
          CHANNELS 3 Zrotation Xrotation Yrotation
          JOINT LeftLeg
          {
               OFFSET 0.00000 -44.42270 1.37270
               CHANNELS 3 Zrotation Xrotation Yrotation
               JOINT LeftFoot
               {
                    OFFSET -0.25355 -42.09240 -1.46059
                    CHANNELS 3 Zrotation Xrotation Yrotation
                    JOINT LeftToes
                    {
                         OFFSET -0.04000 -4.41509 8.49910
                         CHANNELS 3 Zrotation Xrotation Yrotation
                         End Site
                         {
                              OFFSET 0.08000 -0.04745 9.77979
                         }
                    }
               }
          }
     }
     JOINT RightUpLeg
     {
          OFFSET -8.94580 -8.66707 0.10165
          CHANNELS 3 Zrotation Xrotation Yrotation
          JOINT RightLeg
          {
               OFFSET 0.00000 -44.42270 1.37270
               CHANNELS 3 Zrotation Xrotation Yrotation
               JOINT RightFoot
               {
                    OFFSET 0.25355 -42.09240 -1.46059
                    CHANNELS 3 Zrotation Xrotation Yrotation
                    JOINT RightToes
                    {
                         OFFSET 0.04000 -4.41509 8.49910
                         CHANNELS 3 Zrotation Xrotation Yrotation
                         End Site
                         {
                              OFFSET -0.08000 -0.13745 9.77979
                         }
                    }
               }
          }
     }
}
MOTION
Frames: 19
Frame Time: 0.01667
25.62060 88.63090 -33.08770 -10.01100 -23.86740 -70.23480 8.41376 7.77329 -2.17992 10.71210 15.69870 -3.28159 -25.12020 10.05730 18.96660 0.00000 0.00000 0.00000 -81.07470 12.58450 -8.62366 0.85436 6.95232 -6.08394 28.21460 10.78850 8.02018 10.47480 0.90295 3.82916 41.14100 27.38250 86.48340 10.12290 25.24940 92.37490 -11.72070 7.96073 15.87490 8.98304 9.14399 2.68857 -1.69327 19.66830 2.55085 -6.15912 -5.80660 0.11967 -10.75100 -15.61600 -0.19433 -39.01790 -8.16591 6.34328 -4.88464 50.24890 10.99370 9.52318 -26.06900 1.29732 -3.54220 -6.75948 -11.99470 
25.46900 88.39300 -33.50040 -10.33560 -24.43650 -70.82320 8.62763 7.85644 -2.23982 10.96880 15.88150 -3.34745 -25.00580 10.24080 19.12610 0.00000 0.00000 0.00000 -81.62090 13.05530 -7.97301 0.60220 6.93475 -5.03364 28.54860 10.80970 8.06114 10.47380 0.91016 3.88249 41.24780 27.57560 86.97920 9.68754 25.28230 92.67890 -11.46760 8.01468 15.78240 8.89453 9.77632 2.11769 -2.15125 19.44280 3.36622 -6.17264 -5.81117 0.11967 -9.92068 -14.84840 0.55576 -39.39240 -8.54646 6.28258 -5.15146 51.21460 11.93650 8.80706 -26.65020 1.22134 -3.73727 -7.51876 -11.77840 
25.34240 88.21850 -33.91730 -10.60620 -24.83370 -71.17080 8.80121 7.92384 -2.26796 11.14840 16.03840 -3.34975 -24.75410 10.30390 19.17910 0.00000 0.00000 0.00000 -81.72290 13.08890 -7.40319 0.45954 6.89107 -4.66262 29.24320 10.86070 8.17006 10.46780 0.91547 3.92378 41.29670 27.78940 87.53320 9.06457 25.29070 93.07170 -11.23840 8.03417 16.00690 8.97104 10.22590 1.63072 -2.55888 19.20560 4.02145 -6.14580 -5.81476 0.11907 -8.92841 -13.75010 1.20740 -39.57640 -8.80546 6.25365 -5.20300 52.07750 12.48500 8.10248 -27.27790 1.14301 -3.69307 -7.31753 -11.87380 
25.24130 88.10300 -34.33270 -10.81750 -25.07840 -71.19160 8.94379 7.97099 -2.28529 11.24790 16.16210 -3.31961 -24.41400 10.25910 19.16960 0.00000 0.00000 0.00000 -81.42480 12.85860 -7.00239 0.42397 6.71145 -4.79779 30.00710 10.91060 8.25941 10.49400 0.91610 3.91861 41.20850 27.94090 88.06540 8.55280 25.28220 93.49490 -11.15120 8.02066 16.31920 9.19349 10.49580 1.34328 -2.86986 18.95810 4.45247 -6.08021 -5.68633 0.12407 -8.08028 -12.72440 1.65148 -39.57810 -8.85058 6.25197 -5.03512 52.79460 12.55900 7.42889 -27.85670 1.05910 -3.53679 -6.65881 -12.13670 
25.16210 88.04060 -34.73470 -10.94950 -25.20120 -70.87510 9.05402 7.99078 -2.29205 11.26520 16.23770 -3.25604 -24.07950 10.11100 19.19350 0.00000 0.00000 0.00000 -80.86260 12.44230 -6.80866 0.51101 6.35552 -5.32737 30.66110 10.95170 8.32554 10.52510 0.91168 3.87464 41.03290 27.99640 88.50120 8.36096 25.27820 93.84730 -11.21550 7.99322 16.48680 9.52532 10.58550 1.19525 -3.11263 18.72130 4.75340 -6.02960 -5.39639 0.13677 -7.46432 -11.94690 1.93340 -39.44900 -8.66758 6.22521 -4.69580 53.32270 12.21270 6.78647 -28.30470 0.96631 -3.40242 -6.06339 -12.42920 
25.10460 88.02810 -35.10840 -10.98980 -25.21410 -70.24930 9.13294 7.97857 -2.28360 11.20960 16.25380 -3.15360 -23.81930 9.87594 19.32040 0.00000 0.00000 0.00000 -80.16310 11.85540 -6.81136 0.70658 5.84088 -6.18992 31.18430 10.97430 8.33808 10.51120 0.90523 3.83248 40.89860 27.96550 88.78370 8.52672 25.29370 93.99890 -11.35390 7.97113 16.45210 9.95004 10.47040 1.03409 -3.34778 18.55180 5.07207 -6.05281 -5.00527 0.15560 -7.00618 -11.35370 2.12415 -39.24220 -8.28533 6.11610 -4.19943 53.63160 11.51260 6.15177 -28.54860 0.85905 -3.38284 -5.90101 -12.60910 
25.07390 88.05990 -35.44020 -10.95030 -25.09760 -69.35840 9.19903 7.93745 -2.25852 11.10140 16.21600 -3.00869 -23.63450 9.57148 19.54510 0.00000 0.00000 0.00000 -79.38230 11.06120 -6.98289 0.96952 5.28504 -7.37352 31.60190 10.95910 8.22483 10.43780 0.90211 3.83657 40.92890 27.86230 88.90020 8.90239 25.33370 93.86100 -11.45330 7.96635 16.31240 10.48980 10.10570 0.75945 -3.62034 18.54140 5.50002 -6.17672 -4.56740 0.17952 -6.68964 -10.89630 2.17581 -38.97220 -7.74642 5.90209 -3.52143 53.71950 10.49570 5.52341 -28.54690 0.73891 -3.51135 -6.32396 -12.57750 
25.07000 88.12520 -35.72120 -10.87520 -24.83010 -68.26380 9.27476 7.88115 -2.21456 10.96090 16.15350 -2.81290 -23.47870 9.20353 19.79350 0.00000 0.00000 0.00000 -78.52180 10.00240 -7.29151 1.26679 4.90626 -8.92845 31.88770 10.89290 7.94555 10.32890 0.90669 3.91107 41.17810 27.68100 88.87680 9.23469 25.39230 93.44550 -11.41570 7.98494 16.18950 11.17680 9.47136 0.40418 -3.93674 18.78540 6.01597 -6.40030 -4.10514 0.20869 -6.54554 -10.59100 2.02742 -38.61400 -7.08194 5.59751 -2.67990 53.61780 9.23080 4.95560 -28.33140 0.62179 -3.75838 -7.22407 -12.37540 
25.08170 88.21490 -35.95220 -10.82190 -24.42410 -67.02240 9.36302 7.82563 -2.14814 10.79620 16.10070 -2.55909 -23.29210 8.78166 19.96350 0.00000 0.00000 0.00000 -77.57760 8.63390 -7.67783 1.60396 4.97968 -10.99320 31.98850 10.80560 7.61577 10.21350 0.91923 4.04858 41.61600 27.40650 88.74880 9.30017 25.45250 92.84960 -11.21160 8.02361 16.17060 12.01630 8.60920 0.05389 -4.28468 19.30370 6.55940 -6.68842 -3.60037 0.24415 -6.54373 -10.41030 1.71019 -38.13660 -6.28695 5.21551 -1.78138 53.36750 7.85728 4.53133 -28.01250 0.53013 -4.04633 -8.26340 -12.17860 
25.09410 88.32750 -36.14200 -10.81220 -23.92410 -65.65010 9.44586 7.77730 -2.05686 10.59630 16.07240 -2.24721 -22.99590 8.27858 19.99270 0.00000 0.00000 0.00000 -76.55440 6.97898 -8.06745 2.03153 5.69829 -13.75780 31.90390 10.76670 7.48344 10.10510 0.93451 4.20610 42.16900 27.03190 88.55710 9.00179 25.50350 92.19040 -10.90410 8.06862 16.28580 12.98610 7.58833 -0.30649 -4.70204 19.99640 7.21392 -6.92070 -2.95659 0.28746 -6.67751 -10.34650 1.23143 -37.53980 -5.33923 4.75566 -0.93754 52.99540 6.50394 4.32215 -27.72920 0.48162 -4.28987 -9.05348 -12.16260 
25.10000 88.46730 -36.29710 -10.82070 -23.37390 -64.13210 9.50035 7.73392 -1.93881 10.33980 16.06440 -1.88041 -22.48900 7.59721 19.88990 0.00000 0.00000 0.00000 -75.43600 5.10332 -8.42831 2.59132 7.05765 -17.34030 31.71320 10.82400 7.71409 9.99415 0.94461 4.32765 42.79350 26.56800 88.34970 8.39917 25.55900 91.56050 -10.60350 8.11030 16.43120 14.05380 6.44991 -0.76789 -5.27913 20.71620 8.19786 -6.93493 -2.07491 0.33607 -6.97076 -10.40360 0.54141 -36.85560 -4.23804 4.23763 -0.16341 52.50530 5.18707 4.37193 -27.57350 0.48536 -4.42881 -9.34817 -12.38840 
25.09720 88.64210 -36.41200 -10.81200 -22.78920 -62.47240 9.51146 7.69062 -1.78944 10.01530 16.06400 -1.45838 -21.70770 6.65213 19.72000 0.00000 0.00000 0.00000 -74.18990 3.00988 -8.78416 3.26721 8.88104 -21.71170 31.50000 10.96170 8.24812 9.86275 0.94529 4.38753 43.50530 26.02920 88.15270 7.60144 25.64370 91.04290 -10.38850 8.15469 16.37210 15.17780 5.20963 -1.31014 -6.03942 21.36690 9.60619 -6.68041 -0.97358 0.38105 -7.34416 -10.47820 -0.32269 -36.11020 -3.01365 3.70109 0.57899 51.87960 3.85359 4.69078 -27.55040 0.54240 -4.42851 -9.06557 -12.81870 
25.08020 88.86140 -36.47050 -10.76530 -22.15660 -60.71300 9.47397 7.63832 -1.59975 9.62645 16.04860 -0.97216 -20.69140 5.47578 19.58000 0.00000 0.00000 0.00000 -72.80590 0.64364 -9.15588 3.98387 10.89260 -26.75420 31.27030 11.11060 8.83387 9.72219 0.94014 4.40734 44.34890 25.40980 87.93420 6.63464 25.77420 90.70940 -10.27060 8.21224 15.94900 16.30730 3.88935 -1.76595 -6.88296 21.91210 11.30220 -6.25390 0.24840 0.41517 -7.64014 -10.42640 -1.19993 -35.30010 -1.71768 3.17785 1.29731 51.09040 2.46664 5.24588 -27.58460 0.64458 -4.28443 -8.25355 -13.39490 
25.04180 89.13280 -36.45620 -10.67290 -21.45440 -58.90450 9.38821 7.56347 -1.36367 9.18005 15.98640 -0.41517 -19.55220 4.22166 19.54950 0.00000 0.00000 0.00000 -71.29520 -2.05677 -9.53136 4.59824 12.86620 -32.31750 31.00140 11.18320 9.14918 9.61782 0.93783 4.43413 45.37600 24.68730 87.59960 5.50891 25.96080 90.54690 -10.21520 8.27923 15.27430 17.39310 2.52177 -1.98707 -7.68146 22.34510 13.08130 -5.77139 1.48927 0.43650 -7.72368 -10.17400 -1.88162 -34.40340 -0.40226 2.68675 1.96036 50.12030 1.03102 5.99134 -27.57720 0.77976 -4.01023 -7.01346 -14.07540 
24.98220 89.45570 -36.35650 -10.54430 -20.67500 -57.07700 9.26240 7.45749 -1.08776 8.68674 15.85760 0.20032 -18.38270 3.06106 19.64200 0.00000 0.00000 0.00000 -69.67960 -5.15686 -9.91821 4.92705 14.77020 -38.21600 30.71380 11.12390 8.97231 9.58115 0.94435 4.50085 46.63620 23.83720 87.04160 4.32884 26.20830 90.44480 -10.18730 8.33847 14.62790 18.40450 1.14295 -1.96840 -8.38159 22.66790 14.83310 -5.27664 2.66249 0.44357 -7.55879 -9.76515 -2.20376 -33.39850 0.90748 2.23718 2.51204 48.97940 -0.39468 6.91945 -27.49340 0.94365 -3.58441 -5.31142 -14.87410 
24.91070 89.82060 -36.16000 -10.40770 -19.82720 -55.23990 9.11503 7.32432 -0.78818 8.16832 15.66870 0.84674 -17.21510 2.08161 19.80270 0.00000 0.00000 0.00000 -68.01660 -8.65861 -10.38760 4.84355 16.67970 -44.24780 30.44730 10.93730 8.30050 9.59888 0.95851 4.60350 48.14520 22.83450 86.20590 3.22288 26.50030 90.30500 -10.18640 8.37632 14.17940 19.33480 -0.20953 -1.79863 -8.99940 22.87890 16.54460 -4.76301 3.72578 0.43478 -7.28301 -9.37491 -2.20091 -32.27530 2.21606 1.83719 2.91787 47.69800 -1.74927 8.01258 -27.35320 1.13209 -2.96004 -3.01991 -15.89020 
24.84000 90.21490 -35.85740 -10.28270 -18.93180 -53.38360 8.95469 7.17344 -0.47952 7.64300 15.43640 1.49329 -16.04290 1.28235 19.93690 0.00000 0.00000 0.00000 -66.41840 -12.40010 -11.06320 4.34135 18.57990 -50.20670 30.23250 10.66690 7.28658 9.64643 0.97611 4.71920 49.77530 21.67530 85.12950 2.22002 26.70030 90.12200 -10.21890 8.39477 13.89800 20.17260 -1.51446 -1.55637 -9.55321 22.98550 18.21590 -4.21862 4.62656 0.40820 -7.01515 -9.03877 -2.11675 -31.06200 3.53292 1.49402 3.23017 46.29430 -3.06243 9.12200 -27.09470 1.31134 -2.19142 -0.35357 -17.20670 
24.78020 90.63290 -35.44450 -10.15980 -18.01750 -51.48400 8.76198 7.01076 -0.16693 7.11195 15.16610 2.11602 -14.87240 0.63535 19.93650 0.00000 0.00000 0.00000 -65.02940 -16.10220 -12.09210 3.49267 20.34540 -55.88640 30.07870 10.35560 6.09460 9.73439 0.99500 4.82577 51.52570 20.31470 83.81660 1.31532 26.85270 89.92620 -10.29780 8.40130 13.67270 20.87650 -2.77305 -1.28787 -10.03250 23.00870 19.80210 -3.65972 5.22779 0.36378 -6.60211 -8.44532 -2.13177 -29.82910 4.85439 1.19205 3.53449 44.77250 -4.38150 10.03910 -26.56230 1.42749 -1.45125 2.13267 -18.83680 
24.74070 91.07560 -34.91900 -10.02700 -17.10910 -49.52740 8.51565 6.84006 0.14885 6.57969 14.86020 2.70108 -13.75470 0.11697 19.71660 0.00000 0.00000 0.00000 -63.99730 -19.54470 -13.59960 2.41142 21.90130 -61.14100 29.96380 10.04010 4.87298 9.89062 1.01485 4.90719 53.37240 18.71210 82.28270 0.49689 27.00200 89.75990 -10.39050 8.40868 13.41580 21.39560 -3.97458 -1.00694 -10.38330 22.95310 21.19240 -3.13243 5.43373 0.30892 -5.84411 -7.33223 -2.21700 -28.63640 6.16223 0.89028 3.82667 43.17220 -5.61291 10.73880 -25.69630 1.46665 -0.81423 4.23132 -20.84680 
